<svg 
          width="130" 
          height="122.00001525878906" fill="none" 
          xmlns="http://www.w3.org/2000/svg">
          <path d="M 117.8125 24.40000305175781 L 97.5 24.40000305175781 L 97.5 12.200001525878905 C 97.5 5.464584016799926 92.041015625 0 85.3125 0 L 44.6875 0 C 37.958984375 0 32.5 5.464584016799926 32.5 12.200001525878905 L 32.5 24.40000305175781 L 12.1875 24.40000305175781 C 5.458984375 24.40000305175781 0 29.86458706855774 0 36.60000457763672 L 0 109.80001373291014 C 0 116.53543124198913 5.458984375 122.00001525878905 12.1875 122.00001525878905 L 117.8125 122.00001525878905 C 124.541015625 122.00001525878905 130 116.53543124198913 130 109.80001373291014 L 130 36.60000457763672 C 130 29.86458706855774 124.541015625 24.40000305175781 117.8125 24.40000305175781 Z M 48.75 16.266668701171874 L 81.25 16.266668701171874 L 81.25 24.40000305175781 L 48.75 24.40000305175781 L 48.75 16.266668701171874 Z M 89.375 79.30000991821288 C 89.375 80.41834341565767 88.46093752421439 81.33334350585938 87.34375 81.33334350585938 L 73.125 81.33334350585938 L 73.125 95.56667861938476 C 73.125 96.68501211682955 72.21093752421439 97.60001220703124 71.09375 97.60001220703124 L 58.90625 97.60001220703124 C 57.78906247578561 97.60001220703124 56.875 96.68501211682955 56.875 95.56667861938476 L 56.875 81.33334350585938 L 42.65625 81.33334350585938 C 41.53906247578561 81.33334350585938 40.625 80.41834341565767 40.625 79.30000991821288 L 40.625 67.10000839233398 C 40.625 65.98167489488918 41.53906247578561 65.0666748046875 42.65625 65.0666748046875 L 56.875 65.0666748046875 L 56.875 50.8333396911621 C 56.875 49.71500619371731 57.78906247578561 48.80000610351562 58.90625 48.80000610351562 L 71.09375 48.80000610351562 C 72.21093752421439 48.80000610351562 73.125 49.71500619371731 73.125 50.8333396911621 L 73.125 65.0666748046875 L 87.34375 65.0666748046875 C 88.46093752421439 65.0666748046875 89.375 65.98167489488918 89.375 67.10000839233398 L 89.375 79.30000991821288 Z" fill="rgb(239.0625,240.65625607967377,255)"/>
        </svg>